<?xml version="1.0" standalone="no"?>
<svg viewBox="0 0 400 300" class="s-fDvkGBCDeRUm" xmlns="http://www.w3.org/2000/svg"><defs class="s-fDvkGBCDeRUm"><marker id="dot" viewBox="0 0 10 10" refX="5" refY="5" markerWidth="5" markerHeight="5" class="s-fDvkGBCDeRUm"><circle cx="5" cy="5" r="5" fill="#0B6623" class="s-fDvkGBCDeRUm"></circle></marker><g id="stem" class="s-fDvkGBCDeRUm"><line x1="0" y1="0" x2="0" y2="1" stroke="saddlebrown" stroke-width="0.05" class="s-fDvkGBCDeRUm"></line></g><g id="l1"> <use href="#l0" transform="translate(0, -1) rotate(-35) scale(.7)"></use>               <use href="#l0" transform="translate(0, -1) rotate(+35) scale(.7)"></use>              <use href="#stem"></use></g>  <g id="l2"> <use href="#l1" transform="translate(0, -1) rotate(-35) scale(.7)"></use>              <use href="#l1" transform="translate(0, -1) rotate(+35) scale(.7)"></use>              <use href="#stem"></use></g>  <g id="l3"> <use href="#l2" transform="translate(0, -1) rotate(-35) scale(.7)"></use>              <use href="#l2" transform="translate(0, -1) rotate(+35) scale(.7)"></use>              <use href="#stem"></use></g>  <g id="l4"> <use href="#l3" transform="translate(0, -1) rotate(-35) scale(.7)"></use>              <use href="#l3" transform="translate(0, -1) rotate(+35) scale(.7)"></use>              <use href="#stem"></use></g>  <g id="l5"> <use href="#l4" transform="translate(0, -1) rotate(-35) scale(.7)"></use>              <use href="#l4" transform="translate(0, -1) rotate(+35) scale(.7)"></use>              <use href="#stem"></use></g>  <g id="l6"> <use href="#l5" transform="translate(0, -1) rotate(-35) scale(.7)"></use>              <use href="#l5" transform="translate(0, -1) rotate(+35) scale(.7)"></use>              <use href="#stem"></use></g>  <g id="l7"> <use href="#l6" transform="translate(0, -1) rotate(-35) scale(.7)"></use>              <use href="#l6" transform="translate(0, -1) rotate(+35) scale(.7)"></use>              <use href="#stem"></use></g>  <g id="l8"> <use href="#l7" transform="translate(0, -1) rotate(-35) scale(.7)"></use>              <use href="#l7" transform="translate(0, -1) rotate(+35) scale(.7)"></use>              <use href="#stem"></use></g>  <g id="l9"> <use href="#l8" transform="translate(0, -1) rotate(-35) scale(.7)"></use>              <use href="#l8" transform="translate(0, -1) rotate(+35) scale(.7)"></use>              <use href="#stem"></use></g></defs><g transform="translate(200, 300) scale(100)"><use href="#l9"></use></g></svg>
